o lamp_chimney
s 1
v 0.034000 0.160000 0.000000
v 0.032841 0.160000 0.008800
v 0.029445 0.160000 0.017000
v 0.024042 0.160000 0.024042
v 0.017000 0.160000 0.029445
v 0.008800 0.160000 0.032841
v 0.000000 0.160000 0.034000
v -0.008800 0.160000 0.032841
v -0.017000 0.160000 0.029445
v -0.024042 0.160000 0.024042
v -0.029445 0.160000 0.017000
v -0.032841 0.160000 0.008800
v -0.034000 0.160000 0.000000
v -0.032841 0.160000 -0.008800
v -0.029445 0.160000 -0.017000
v -0.024042 0.160000 -0.024042
v -0.017000 0.160000 -0.029445
v -0.008800 0.160000 -0.032841
v -0.000000 0.160000 -0.034000
v 0.008800 0.160000 -0.032841
v 0.017000 0.160000 -0.029445
v 0.024042 0.160000 -0.024042
v 0.029445 0.160000 -0.017000
v 0.032841 0.160000 -0.008800
v 0.039000 0.170000 0.000000
v 0.037671 0.170000 0.010094
v 0.033775 0.170000 0.019500
v 0.027577 0.170000 0.027577
v 0.019500 0.170000 0.033775
v 0.010094 0.170000 0.037671
v 0.000000 0.170000 0.039000
v -0.010094 0.170000 0.037671
v -0.019500 0.170000 0.033775
v -0.027577 0.170000 0.027577
v -0.033775 0.170000 0.019500
v -0.037671 0.170000 0.010094
v -0.039000 0.170000 0.000000
v -0.037671 0.170000 -0.010094
v -0.033775 0.170000 -0.019500
v -0.027577 0.170000 -0.027577
v -0.019500 0.170000 -0.033775
v -0.010094 0.170000 -0.037671
v -0.000000 0.170000 -0.039000
v 0.010094 0.170000 -0.037671
v 0.019500 0.170000 -0.033775
v 0.027577 0.170000 -0.027577
v 0.033775 0.170000 -0.019500
v 0.037671 0.170000 -0.010094
v 0.046000 0.195000 0.000000
v 0.044433 0.195000 0.011906
v 0.039837 0.195000 0.023000
v 0.032527 0.195000 0.032527
v 0.023000 0.195000 0.039837
v 0.011906 0.195000 0.044433
v 0.000000 0.195000 0.046000
v -0.011906 0.195000 0.044433
v -0.023000 0.195000 0.039837
v -0.032527 0.195000 0.032527
v -0.039837 0.195000 0.023000
v -0.044433 0.195000 0.011906
v -0.046000 0.195000 0.000000
v -0.044433 0.195000 -0.011906
v -0.039837 0.195000 -0.023000
v -0.032527 0.195000 -0.032527
v -0.023000 0.195000 -0.039837
v -0.011906 0.195000 -0.044433
v -0.000000 0.195000 -0.046000
v 0.011906 0.195000 -0.044433
v 0.023000 0.195000 -0.039837
v 0.032527 0.195000 -0.032527
v 0.039837 0.195000 -0.023000
v 0.044433 0.195000 -0.011906
v 0.047000 0.214000 0.000000
v 0.045399 0.214000 0.012164
v 0.040703 0.214000 0.023500
v 0.033234 0.214000 0.033234
v 0.023500 0.214000 0.040703
v 0.012164 0.214000 0.045399
v 0.000000 0.214000 0.047000
v -0.012164 0.214000 0.045399
v -0.023500 0.214000 0.040703
v -0.033234 0.214000 0.033234
v -0.040703 0.214000 0.023500
v -0.045399 0.214000 0.012164
v -0.047000 0.214000 0.000000
v -0.045399 0.214000 -0.012164
v -0.040703 0.214000 -0.023500
v -0.033234 0.214000 -0.033234
v -0.023500 0.214000 -0.040703
v -0.012164 0.214000 -0.045399
v -0.000000 0.214000 -0.047000
v 0.012164 0.214000 -0.045399
v 0.023500 0.214000 -0.040703
v 0.033234 0.214000 -0.033234
v 0.040703 0.214000 -0.023500
v 0.045399 0.214000 -0.012164
v 0.043000 0.237000 0.000000
v 0.041535 0.237000 0.011129
v 0.037239 0.237000 0.021500
v 0.030406 0.237000 0.030406
v 0.021500 0.237000 0.037239
v 0.011129 0.237000 0.041535
v 0.000000 0.237000 0.043000
v -0.011129 0.237000 0.041535
v -0.021500 0.237000 0.037239
v -0.030406 0.237000 0.030406
v -0.037239 0.237000 0.021500
v -0.041535 0.237000 0.011129
v -0.043000 0.237000 0.000000
v -0.041535 0.237000 -0.011129
v -0.037239 0.237000 -0.021500
v -0.030406 0.237000 -0.030406
v -0.021500 0.237000 -0.037239
v -0.011129 0.237000 -0.041535
v -0.000000 0.237000 -0.043000
v 0.011129 0.237000 -0.041535
v 0.021500 0.237000 -0.037239
v 0.030406 0.237000 -0.030406
v 0.037239 0.237000 -0.021500
v 0.041535 0.237000 -0.011129
v 0.029000 0.265000 0.000000
v 0.028012 0.265000 0.007506
v 0.025115 0.265000 0.014500
v 0.020506 0.265000 0.020506
v 0.014500 0.265000 0.025115
v 0.007506 0.265000 0.028012
v 0.000000 0.265000 0.029000
v -0.007506 0.265000 0.028012
v -0.014500 0.265000 0.025115
v -0.020506 0.265000 0.020506
v -0.025115 0.265000 0.014500
v -0.028012 0.265000 0.007506
v -0.029000 0.265000 0.000000
v -0.028012 0.265000 -0.007506
v -0.025115 0.265000 -0.014500
v -0.020506 0.265000 -0.020506
v -0.014500 0.265000 -0.025115
v -0.007506 0.265000 -0.028012
v -0.000000 0.265000 -0.029000
v 0.007506 0.265000 -0.028012
v 0.014500 0.265000 -0.025115
v 0.020506 0.265000 -0.020506
v 0.025115 0.265000 -0.014500
v 0.028012 0.265000 -0.007506
v 0.023000 0.278000 0.000000
v 0.022216 0.278000 0.005953
v 0.019919 0.278000 0.011500
v 0.016263 0.278000 0.016263
v 0.011500 0.278000 0.019919
v 0.005953 0.278000 0.022216
v 0.000000 0.278000 0.023000
v -0.005953 0.278000 0.022216
v -0.011500 0.278000 0.019919
v -0.016263 0.278000 0.016263
v -0.019919 0.278000 0.011500
v -0.022216 0.278000 0.005953
v -0.023000 0.278000 0.000000
v -0.022216 0.278000 -0.005953
v -0.019919 0.278000 -0.011500
v -0.016263 0.278000 -0.016263
v -0.011500 0.278000 -0.019919
v -0.005953 0.278000 -0.022216
v -0.000000 0.278000 -0.023000
v 0.005953 0.278000 -0.022216
v 0.011500 0.278000 -0.019919
v 0.016263 0.278000 -0.016263
v 0.019919 0.278000 -0.011500
v 0.022216 0.278000 -0.005953
v 0.023000 0.385000 0.000000
v 0.022216 0.385000 0.005953
v 0.019919 0.385000 0.011500
v 0.016263 0.385000 0.016263
v 0.011500 0.385000 0.019919
v 0.005953 0.385000 0.022216
v 0.000000 0.385000 0.023000
v -0.005953 0.385000 0.022216
v -0.011500 0.385000 0.019919
v -0.016263 0.385000 0.016263
v -0.019919 0.385000 0.011500
v -0.022216 0.385000 0.005953
v -0.023000 0.385000 0.000000
v -0.022216 0.385000 -0.005953
v -0.019919 0.385000 -0.011500
v -0.016263 0.385000 -0.016263
v -0.011500 0.385000 -0.019919
v -0.005953 0.385000 -0.022216
v -0.000000 0.385000 -0.023000
v 0.005953 0.385000 -0.022216
v 0.011500 0.385000 -0.019919
v 0.016263 0.385000 -0.016263
v 0.019919 0.385000 -0.011500
v 0.022216 0.385000 -0.005953
v 0.026000 0.391000 0.000000
v 0.025114 0.391000 0.006729
v 0.022517 0.391000 0.013000
v 0.018385 0.391000 0.018385
v 0.013000 0.391000 0.022517
v 0.006729 0.391000 0.025114
v 0.000000 0.391000 0.026000
v -0.006729 0.391000 0.025114
v -0.013000 0.391000 0.022517
v -0.018385 0.391000 0.018385
v -0.022517 0.391000 0.013000
v -0.025114 0.391000 0.006729
v -0.026000 0.391000 0.000000
v -0.025114 0.391000 -0.006729
v -0.022517 0.391000 -0.013000
v -0.018385 0.391000 -0.018385
v -0.013000 0.391000 -0.022517
v -0.006729 0.391000 -0.025114
v -0.000000 0.391000 -0.026000
v 0.006729 0.391000 -0.025114
v 0.013000 0.391000 -0.022517
v 0.018385 0.391000 -0.018385
v 0.022517 0.391000 -0.013000
v 0.025114 0.391000 -0.006729
v 0.026000 0.396000 0.000000
v 0.025114 0.396000 0.006729
v 0.022517 0.396000 0.013000
v 0.018385 0.396000 0.018385
v 0.013000 0.396000 0.022517
v 0.006729 0.396000 0.025114
v 0.000000 0.396000 0.026000
v -0.006729 0.396000 0.025114
v -0.013000 0.396000 0.022517
v -0.018385 0.396000 0.018385
v -0.022517 0.396000 0.013000
v -0.025114 0.396000 0.006729
v -0.026000 0.396000 0.000000
v -0.025114 0.396000 -0.006729
v -0.022517 0.396000 -0.013000
v -0.018385 0.396000 -0.018385
v -0.013000 0.396000 -0.022517
v -0.006729 0.396000 -0.025114
v -0.000000 0.396000 -0.026000
v 0.006729 0.396000 -0.025114
v 0.013000 0.396000 -0.022517
v 0.018385 0.396000 -0.018385
v 0.022517 0.396000 -0.013000
v 0.025114 0.396000 -0.006729
v 0.032500 0.160000 0.000000
v 0.031393 0.160000 0.008412
v 0.028146 0.160000 0.016250
v 0.022981 0.160000 0.022981
v 0.016250 0.160000 0.028146
v 0.008412 0.160000 0.031393
v 0.000000 0.160000 0.032500
v -0.008412 0.160000 0.031393
v -0.016250 0.160000 0.028146
v -0.022981 0.160000 0.022981
v -0.028146 0.160000 0.016250
v -0.031393 0.160000 0.008412
v -0.032500 0.160000 0.000000
v -0.031393 0.160000 -0.008412
v -0.028146 0.160000 -0.016250
v -0.022981 0.160000 -0.022981
v -0.016250 0.160000 -0.028146
v -0.008412 0.160000 -0.031393
v -0.000000 0.160000 -0.032500
v 0.008412 0.160000 -0.031393
v 0.016250 0.160000 -0.028146
v 0.022981 0.160000 -0.022981
v 0.028146 0.160000 -0.016250
v 0.031393 0.160000 -0.008412
v 0.037500 0.170000 0.000000
v 0.036222 0.170000 0.009706
v 0.032476 0.170000 0.018750
v 0.026517 0.170000 0.026517
v 0.018750 0.170000 0.032476
v 0.009706 0.170000 0.036222
v 0.000000 0.170000 0.037500
v -0.009706 0.170000 0.036222
v -0.018750 0.170000 0.032476
v -0.026517 0.170000 0.026517
v -0.032476 0.170000 0.018750
v -0.036222 0.170000 0.009706
v -0.037500 0.170000 0.000000
v -0.036222 0.170000 -0.009706
v -0.032476 0.170000 -0.018750
v -0.026517 0.170000 -0.026517
v -0.018750 0.170000 -0.032476
v -0.009706 0.170000 -0.036222
v -0.000000 0.170000 -0.037500
v 0.009706 0.170000 -0.036222
v 0.018750 0.170000 -0.032476
v 0.026517 0.170000 -0.026517
v 0.032476 0.170000 -0.018750
v 0.036222 0.170000 -0.009706
v 0.044500 0.195000 0.000000
v 0.042984 0.195000 0.011517
v 0.038538 0.195000 0.022250
v 0.031466 0.195000 0.031466
v 0.022250 0.195000 0.038538
v 0.011517 0.195000 0.042984
v 0.000000 0.195000 0.044500
v -0.011517 0.195000 0.042984
v -0.022250 0.195000 0.038538
v -0.031466 0.195000 0.031466
v -0.038538 0.195000 0.022250
v -0.042984 0.195000 0.011517
v -0.044500 0.195000 0.000000
v -0.042984 0.195000 -0.011517
v -0.038538 0.195000 -0.022250
v -0.031466 0.195000 -0.031466
v -0.022250 0.195000 -0.038538
v -0.011517 0.195000 -0.042984
v -0.000000 0.195000 -0.044500
v 0.011517 0.195000 -0.042984
v 0.022250 0.195000 -0.038538
v 0.031466 0.195000 -0.031466
v 0.038538 0.195000 -0.022250
v 0.042984 0.195000 -0.011517
v 0.045500 0.214000 0.000000
v 0.043950 0.214000 0.011776
v 0.039404 0.214000 0.022750
v 0.032173 0.214000 0.032173
v 0.022750 0.214000 0.039404
v 0.011776 0.214000 0.043950
v 0.000000 0.214000 0.045500
v -0.011776 0.214000 0.043950
v -0.022750 0.214000 0.039404
v -0.032173 0.214000 0.032173
v -0.039404 0.214000 0.022750
v -0.043950 0.214000 0.011776
v -0.045500 0.214000 0.000000
v -0.043950 0.214000 -0.011776
v -0.039404 0.214000 -0.022750
v -0.032173 0.214000 -0.032173
v -0.022750 0.214000 -0.039404
v -0.011776 0.214000 -0.043950
v -0.000000 0.214000 -0.045500
v 0.011776 0.214000 -0.043950
v 0.022750 0.214000 -0.039404
v 0.032173 0.214000 -0.032173
v 0.039404 0.214000 -0.022750
v 0.043950 0.214000 -0.011776
v 0.041500 0.237000 0.000000
v 0.040086 0.237000 0.010741
v 0.035940 0.237000 0.020750
v 0.029345 0.237000 0.029345
v 0.020750 0.237000 0.035940
v 0.010741 0.237000 0.040086
v 0.000000 0.237000 0.041500
v -0.010741 0.237000 0.040086
v -0.020750 0.237000 0.035940
v -0.029345 0.237000 0.029345
v -0.035940 0.237000 0.020750
v -0.040086 0.237000 0.010741
v -0.041500 0.237000 0.000000
v -0.040086 0.237000 -0.010741
v -0.035940 0.237000 -0.020750
v -0.029345 0.237000 -0.029345
v -0.020750 0.237000 -0.035940
v -0.010741 0.237000 -0.040086
v -0.000000 0.237000 -0.041500
v 0.010741 0.237000 -0.040086
v 0.020750 0.237000 -0.035940
v 0.029345 0.237000 -0.029345
v 0.035940 0.237000 -0.020750
v 0.040086 0.237000 -0.010741
v 0.027500 0.265000 0.000000
v 0.026563 0.265000 0.007118
v 0.023816 0.265000 0.013750
v 0.019445 0.265000 0.019445
v 0.013750 0.265000 0.023816
v 0.007118 0.265000 0.026563
v 0.000000 0.265000 0.027500
v -0.007118 0.265000 0.026563
v -0.013750 0.265000 0.023816
v -0.019445 0.265000 0.019445
v -0.023816 0.265000 0.013750
v -0.026563 0.265000 0.007118
v -0.027500 0.265000 0.000000
v -0.026563 0.265000 -0.007118
v -0.023816 0.265000 -0.013750
v -0.019445 0.265000 -0.019445
v -0.013750 0.265000 -0.023816
v -0.007118 0.265000 -0.026563
v -0.000000 0.265000 -0.027500
v 0.007118 0.265000 -0.026563
v 0.013750 0.265000 -0.023816
v 0.019445 0.265000 -0.019445
v 0.023816 0.265000 -0.013750
v 0.026563 0.265000 -0.007118
v 0.021500 0.278000 0.000000
v 0.020767 0.278000 0.005565
v 0.018620 0.278000 0.010750
v 0.015203 0.278000 0.015203
v 0.010750 0.278000 0.018620
v 0.005565 0.278000 0.020767
v 0.000000 0.278000 0.021500
v -0.005565 0.278000 0.020767
v -0.010750 0.278000 0.018620
v -0.015203 0.278000 0.015203
v -0.018620 0.278000 0.010750
v -0.020767 0.278000 0.005565
v -0.021500 0.278000 0.000000
v -0.020767 0.278000 -0.005565
v -0.018620 0.278000 -0.010750
v -0.015203 0.278000 -0.015203
v -0.010750 0.278000 -0.018620
v -0.005565 0.278000 -0.020767
v -0.000000 0.278000 -0.021500
v 0.005565 0.278000 -0.020767
v 0.010750 0.278000 -0.018620
v 0.015203 0.278000 -0.015203
v 0.018620 0.278000 -0.010750
v 0.020767 0.278000 -0.005565
v 0.021500 0.385000 0.000000
v 0.020767 0.385000 0.005565
v 0.018620 0.385000 0.010750
v 0.015203 0.385000 0.015203
v 0.010750 0.385000 0.018620
v 0.005565 0.385000 0.020767
v 0.000000 0.385000 0.021500
v -0.005565 0.385000 0.020767
v -0.010750 0.385000 0.018620
v -0.015203 0.385000 0.015203
v -0.018620 0.385000 0.010750
v -0.020767 0.385000 0.005565
v -0.021500 0.385000 0.000000
v -0.020767 0.385000 -0.005565
v -0.018620 0.385000 -0.010750
v -0.015203 0.385000 -0.015203
v -0.010750 0.385000 -0.018620
v -0.005565 0.385000 -0.020767
v -0.000000 0.385000 -0.021500
v 0.005565 0.385000 -0.020767
v 0.010750 0.385000 -0.018620
v 0.015203 0.385000 -0.015203
v 0.018620 0.385000 -0.010750
v 0.020767 0.385000 -0.005565
v 0.024500 0.391000 0.000000
v 0.023665 0.391000 0.006341
v 0.021218 0.391000 0.012250
v 0.017324 0.391000 0.017324
v 0.012250 0.391000 0.021218
v 0.006341 0.391000 0.023665
v 0.000000 0.391000 0.024500
v -0.006341 0.391000 0.023665
v -0.012250 0.391000 0.021218
v -0.017324 0.391000 0.017324
v -0.021218 0.391000 0.012250
v -0.023665 0.391000 0.006341
v -0.024500 0.391000 0.000000
v -0.023665 0.391000 -0.006341
v -0.021218 0.391000 -0.012250
v -0.017324 0.391000 -0.017324
v -0.012250 0.391000 -0.021218
v -0.006341 0.391000 -0.023665
v -0.000000 0.391000 -0.024500
v 0.006341 0.391000 -0.023665
v 0.012250 0.391000 -0.021218
v 0.017324 0.391000 -0.017324
v 0.021218 0.391000 -0.012250
v 0.023665 0.391000 -0.006341
v 0.024500 0.396000 0.000000
v 0.023665 0.396000 0.006341
v 0.021218 0.396000 0.012250
v 0.017324 0.396000 0.017324
v 0.012250 0.396000 0.021218
v 0.006341 0.396000 0.023665
v 0.000000 0.396000 0.024500
v -0.006341 0.396000 0.023665
v -0.012250 0.396000 0.021218
v -0.017324 0.396000 0.017324
v -0.021218 0.396000 0.012250
v -0.023665 0.396000 0.006341
v -0.024500 0.396000 0.000000
v -0.023665 0.396000 -0.006341
v -0.021218 0.396000 -0.012250
v -0.017324 0.396000 -0.017324
v -0.012250 0.396000 -0.021218
v -0.006341 0.396000 -0.023665
v -0.000000 0.396000 -0.024500
v 0.006341 0.396000 -0.023665
v 0.012250 0.396000 -0.021218
v 0.017324 0.396000 -0.017324
v 0.021218 0.396000 -0.012250
v 0.023665 0.396000 -0.006341
f 1 25 26 2
f 2 26 27 3
f 3 27 28 4
f 4 28 29 5
f 5 29 30 6
f 6 30 31 7
f 7 31 32 8
f 8 32 33 9
f 9 33 34 10
f 10 34 35 11
f 11 35 36 12
f 12 36 37 13
f 13 37 38 14
f 14 38 39 15
f 15 39 40 16
f 16 40 41 17
f 17 41 42 18
f 18 42 43 19
f 19 43 44 20
f 20 44 45 21
f 21 45 46 22
f 22 46 47 23
f 23 47 48 24
f 24 48 25 1
f 25 49 50 26
f 26 50 51 27
f 27 51 52 28
f 28 52 53 29
f 29 53 54 30
f 30 54 55 31
f 31 55 56 32
f 32 56 57 33
f 33 57 58 34
f 34 58 59 35
f 35 59 60 36
f 36 60 61 37
f 37 61 62 38
f 38 62 63 39
f 39 63 64 40
f 40 64 65 41
f 41 65 66 42
f 42 66 67 43
f 43 67 68 44
f 44 68 69 45
f 45 69 70 46
f 46 70 71 47
f 47 71 72 48
f 48 72 49 25
f 49 73 74 50
f 50 74 75 51
f 51 75 76 52
f 52 76 77 53
f 53 77 78 54
f 54 78 79 55
f 55 79 80 56
f 56 80 81 57
f 57 81 82 58
f 58 82 83 59
f 59 83 84 60
f 60 84 85 61
f 61 85 86 62
f 62 86 87 63
f 63 87 88 64
f 64 88 89 65
f 65 89 90 66
f 66 90 91 67
f 67 91 92 68
f 68 92 93 69
f 69 93 94 70
f 70 94 95 71
f 71 95 96 72
f 72 96 73 49
f 73 97 98 74
f 74 98 99 75
f 75 99 100 76
f 76 100 101 77
f 77 101 102 78
f 78 102 103 79
f 79 103 104 80
f 80 104 105 81
f 81 105 106 82
f 82 106 107 83
f 83 107 108 84
f 84 108 109 85
f 85 109 110 86
f 86 110 111 87
f 87 111 112 88
f 88 112 113 89
f 89 113 114 90
f 90 114 115 91
f 91 115 116 92
f 92 116 117 93
f 93 117 118 94
f 94 118 119 95
f 95 119 120 96
f 96 120 97 73
f 97 121 122 98
f 98 122 123 99
f 99 123 124 100
f 100 124 125 101
f 101 125 126 102
f 102 126 127 103
f 103 127 128 104
f 104 128 129 105
f 105 129 130 106
f 106 130 131 107
f 107 131 132 108
f 108 132 133 109
f 109 133 134 110
f 110 134 135 111
f 111 135 136 112
f 112 136 137 113
f 113 137 138 114
f 114 138 139 115
f 115 139 140 116
f 116 140 141 117
f 117 141 142 118
f 118 142 143 119
f 119 143 144 120
f 120 144 121 97
f 121 145 146 122
f 122 146 147 123
f 123 147 148 124
f 124 148 149 125
f 125 149 150 126
f 126 150 151 127
f 127 151 152 128
f 128 152 153 129
f 129 153 154 130
f 130 154 155 131
f 131 155 156 132
f 132 156 157 133
f 133 157 158 134
f 134 158 159 135
f 135 159 160 136
f 136 160 161 137
f 137 161 162 138
f 138 162 163 139
f 139 163 164 140
f 140 164 165 141
f 141 165 166 142
f 142 166 167 143
f 143 167 168 144
f 144 168 145 121
f 145 169 170 146
f 146 170 171 147
f 147 171 172 148
f 148 172 173 149
f 149 173 174 150
f 150 174 175 151
f 151 175 176 152
f 152 176 177 153
f 153 177 178 154
f 154 178 179 155
f 155 179 180 156
f 156 180 181 157
f 157 181 182 158
f 158 182 183 159
f 159 183 184 160
f 160 184 185 161
f 161 185 186 162
f 162 186 187 163
f 163 187 188 164
f 164 188 189 165
f 165 189 190 166
f 166 190 191 167
f 167 191 192 168
f 168 192 169 145
f 169 193 194 170
f 170 194 195 171
f 171 195 196 172
f 172 196 197 173
f 173 197 198 174
f 174 198 199 175
f 175 199 200 176
f 176 200 201 177
f 177 201 202 178
f 178 202 203 179
f 179 203 204 180
f 180 204 205 181
f 181 205 206 182
f 182 206 207 183
f 183 207 208 184
f 184 208 209 185
f 185 209 210 186
f 186 210 211 187
f 187 211 212 188
f 188 212 213 189
f 189 213 214 190
f 190 214 215 191
f 191 215 216 192
f 192 216 193 169
f 193 217 218 194
f 194 218 219 195
f 195 219 220 196
f 196 220 221 197
f 197 221 222 198
f 198 222 223 199
f 199 223 224 200
f 200 224 225 201
f 201 225 226 202
f 202 226 227 203
f 203 227 228 204
f 204 228 229 205
f 205 229 230 206
f 206 230 231 207
f 207 231 232 208
f 208 232 233 209
f 209 233 234 210
f 210 234 235 211
f 211 235 236 212
f 212 236 237 213
f 213 237 238 214
f 214 238 239 215
f 215 239 240 216
f 216 240 217 193
f 242 266 265 241
f 243 267 266 242
f 244 268 267 243
f 245 269 268 244
f 246 270 269 245
f 247 271 270 246
f 248 272 271 247
f 249 273 272 248
f 250 274 273 249
f 251 275 274 250
f 252 276 275 251
f 253 277 276 252
f 254 278 277 253
f 255 279 278 254
f 256 280 279 255
f 257 281 280 256
f 258 282 281 257
f 259 283 282 258
f 260 284 283 259
f 261 285 284 260
f 262 286 285 261
f 263 287 286 262
f 264 288 287 263
f 241 265 288 264
f 266 290 289 265
f 267 291 290 266
f 268 292 291 267
f 269 293 292 268
f 270 294 293 269
f 271 295 294 270
f 272 296 295 271
f 273 297 296 272
f 274 298 297 273
f 275 299 298 274
f 276 300 299 275
f 277 301 300 276
f 278 302 301 277
f 279 303 302 278
f 280 304 303 279
f 281 305 304 280
f 282 306 305 281
f 283 307 306 282
f 284 308 307 283
f 285 309 308 284
f 286 310 309 285
f 287 311 310 286
f 288 312 311 287
f 265 289 312 288
f 290 314 313 289
f 291 315 314 290
f 292 316 315 291
f 293 317 316 292
f 294 318 317 293
f 295 319 318 294
f 296 320 319 295
f 297 321 320 296
f 298 322 321 297
f 299 323 322 298
f 300 324 323 299
f 301 325 324 300
f 302 326 325 301
f 303 327 326 302
f 304 328 327 303
f 305 329 328 304
f 306 330 329 305
f 307 331 330 306
f 308 332 331 307
f 309 333 332 308
f 310 334 333 309
f 311 335 334 310
f 312 336 335 311
f 289 313 336 312
f 314 338 337 313
f 315 339 338 314
f 316 340 339 315
f 317 341 340 316
f 318 342 341 317
f 319 343 342 318
f 320 344 343 319
f 321 345 344 320
f 322 346 345 321
f 323 347 346 322
f 324 348 347 323
f 325 349 348 324
f 326 350 349 325
f 327 351 350 326
f 328 352 351 327
f 329 353 352 328
f 330 354 353 329
f 331 355 354 330
f 332 356 355 331
f 333 357 356 332
f 334 358 357 333
f 335 359 358 334
f 336 360 359 335
f 313 337 360 336
f 338 362 361 337
f 339 363 362 338
f 340 364 363 339
f 341 365 364 340
f 342 366 365 341
f 343 367 366 342
f 344 368 367 343
f 345 369 368 344
f 346 370 369 345
f 347 371 370 346
f 348 372 371 347
f 349 373 372 348
f 350 374 373 349
f 351 375 374 350
f 352 376 375 351
f 353 377 376 352
f 354 378 377 353
f 355 379 378 354
f 356 380 379 355
f 357 381 380 356
f 358 382 381 357
f 359 383 382 358
f 360 384 383 359
f 337 361 384 360
f 362 386 385 361
f 363 387 386 362
f 364 388 387 363
f 365 389 388 364
f 366 390 389 365
f 367 391 390 366
f 368 392 391 367
f 369 393 392 368
f 370 394 393 369
f 371 395 394 370
f 372 396 395 371
f 373 397 396 372
f 374 398 397 373
f 375 399 398 374
f 376 400 399 375
f 377 401 400 376
f 378 402 401 377
f 379 403 402 378
f 380 404 403 379
f 381 405 404 380
f 382 406 405 381
f 383 407 406 382
f 384 408 407 383
f 361 385 408 384
f 386 410 409 385
f 387 411 410 386
f 388 412 411 387
f 389 413 412 388
f 390 414 413 389
f 391 415 414 390
f 392 416 415 391
f 393 417 416 392
f 394 418 417 393
f 395 419 418 394
f 396 420 419 395
f 397 421 420 396
f 398 422 421 397
f 399 423 422 398
f 400 424 423 399
f 401 425 424 400
f 402 426 425 401
f 403 427 426 402
f 404 428 427 403
f 405 429 428 404
f 406 430 429 405
f 407 431 430 406
f 408 432 431 407
f 385 409 432 408
f 410 434 433 409
f 411 435 434 410
f 412 436 435 411
f 413 437 436 412
f 414 438 437 413
f 415 439 438 414
f 416 440 439 415
f 417 441 440 416
f 418 442 441 417
f 419 443 442 418
f 420 444 443 419
f 421 445 444 420
f 422 446 445 421
f 423 447 446 422
f 424 448 447 423
f 425 449 448 424
f 426 450 449 425
f 427 451 450 426
f 428 452 451 427
f 429 453 452 428
f 430 454 453 429
f 431 455 454 430
f 432 456 455 431
f 409 433 456 432
f 434 458 457 433
f 435 459 458 434
f 436 460 459 435
f 437 461 460 436
f 438 462 461 437
f 439 463 462 438
f 440 464 463 439
f 441 465 464 440
f 442 466 465 441
f 443 467 466 442
f 444 468 467 443
f 445 469 468 444
f 446 470 469 445
f 447 471 470 446
f 448 472 471 447
f 449 473 472 448
f 450 474 473 449
f 451 475 474 450
f 452 476 475 451
f 453 477 476 452
f 454 478 477 453
f 455 479 478 454
f 456 480 479 455
f 433 457 480 456
f 1 2 242 241
f 2 3 243 242
f 3 4 244 243
f 4 5 245 244
f 5 6 246 245
f 6 7 247 246
f 7 8 248 247
f 8 9 249 248
f 9 10 250 249
f 10 11 251 250
f 11 12 252 251
f 12 13 253 252
f 13 14 254 253
f 14 15 255 254
f 15 16 256 255
f 16 17 257 256
f 17 18 258 257
f 18 19 259 258
f 19 20 260 259
f 20 21 261 260
f 21 22 262 261
f 22 23 263 262
f 23 24 264 263
f 24 1 241 264
f 217 218 458 457
f 218 219 459 458
f 219 220 460 459
f 220 221 461 460
f 221 222 462 461
f 222 223 463 462
f 223 224 464 463
f 224 225 465 464
f 225 226 466 465
f 226 227 467 466
f 227 228 468 467
f 228 229 469 468
f 229 230 470 469
f 230 231 471 470
f 231 232 472 471
f 232 233 473 472
f 233 234 474 473
f 234 235 475 474
f 235 236 476 475
f 236 237 477 476
f 237 238 478 477
f 238 239 479 478
f 239 240 480 479
f 240 217 457 480
