# DEAD WIRE authored writing anatomy
o cuff
s 1
v 0.023000 0.000000 -0.025000
v 0.018607 0.009405 -0.025000
v 0.007107 0.015217 -0.025000
v -0.007107 0.015217 -0.025000
v -0.018607 0.009405 -0.025000
v -0.023000 0.000000 -0.025000
v -0.018607 -0.009405 -0.025000
v -0.007107 -0.015217 -0.025000
v 0.007107 -0.015217 -0.025000
v 0.018607 -0.009405 -0.025000
v 0.026000 0.000000 -0.019000
v 0.021034 0.011168 -0.019000
v 0.008034 0.018070 -0.019000
v -0.008034 0.018070 -0.019000
v -0.021034 0.011168 -0.019000
v -0.026000 0.000000 -0.019000
v -0.021034 -0.011168 -0.019000
v -0.008034 -0.018070 -0.019000
v 0.008034 -0.018070 -0.019000
v 0.021034 -0.011168 -0.019000
v 0.026000 0.000000 0.020000
v 0.021034 0.011756 0.020000
v 0.008034 0.019021 0.020000
v -0.008034 0.019021 0.020000
v -0.021034 0.011756 0.020000
v -0.026000 0.000000 0.020000
v -0.021034 -0.011756 0.020000
v -0.008034 -0.019021 0.020000
v 0.008034 -0.019021 0.020000
v 0.021034 -0.011756 0.020000
v 0.024000 0.000000 0.026000
v 0.019416 0.010580 0.026000
v 0.007416 0.017119 0.026000
v -0.007416 0.017119 0.026000
v -0.019416 0.010580 0.026000
v -0.024000 0.000000 0.026000
v -0.019416 -0.010580 0.026000
v -0.007416 -0.017119 0.026000
v 0.007416 -0.017119 0.026000
v 0.019416 -0.010580 0.026000
f 10 9 8 7 6 5 4 3 2 1
f 1 2 12 11
f 2 3 13 12
f 3 4 14 13
f 4 5 15 14
f 5 6 16 15
f 6 7 17 16
f 7 8 18 17
f 8 9 19 18
f 9 10 20 19
f 10 1 11 20
f 11 12 22 21
f 12 13 23 22
f 13 14 24 23
f 14 15 25 24
f 15 16 26 25
f 16 17 27 26
f 17 18 28 27
f 18 19 29 28
f 19 20 30 29
f 20 11 21 30
f 21 22 32 31
f 22 23 33 32
f 23 24 34 33
f 24 25 35 34
f 25 26 36 35
f 26 27 37 36
f 27 28 38 37
f 28 29 39 38
f 29 30 40 39
f 30 21 31 40
f 31 32 33 34 35 36 37 38 39 40
