o cuff_v2
s 1
v 0.032000 0.000000 -0.030000
v 0.022627 0.020506 -0.030000
v 0.000000 0.029000 -0.030000
v -0.022627 0.020506 -0.030000
v -0.032000 0.000000 -0.030000
v -0.022627 -0.020506 -0.030000
v -0.000000 -0.029000 -0.030000
v 0.022627 -0.020506 -0.030000
v 0.034000 0.001000 0.010000
v 0.024042 0.022920 0.010000
v 0.000000 0.032000 0.010000
v -0.024042 0.022920 0.010000
v -0.034000 0.001000 0.010000
v -0.024042 -0.020920 0.010000
v -0.000000 -0.030000 0.010000
v 0.024042 -0.020920 0.010000
v 0.033000 0.000000 0.035000
v 0.023335 0.021213 0.035000
v 0.000000 0.030000 0.035000
v -0.023335 0.021213 0.035000
v -0.033000 0.000000 0.035000
v -0.023335 -0.021213 0.035000
v -0.000000 -0.030000 0.035000
v 0.023335 -0.021213 0.035000
f 1 9 10 2
f 2 10 11 3
f 3 11 12 4
f 4 12 13 5
f 5 13 14 6
f 6 14 15 7
f 7 15 16 8
f 8 16 9 1
f 9 17 18 10
f 10 18 19 11
f 11 19 20 12
f 12 20 21 13
f 13 21 22 14
f 14 22 23 15
f 15 23 24 16
f 16 24 17 9
v 0.000000 0.000000 -0.030000
f 1 2 25
f 2 3 25
f 3 4 25
f 4 5 25
f 5 6 25
f 6 7 25
f 7 8 25
f 8 1 25
v 0.000000 0.000000 0.035000
f 17 26 18
f 18 26 19
f 19 26 20
f 20 26 21
f 21 26 22
f 22 26 23
f 23 26 24
f 24 26 17
