o forearm_v2
s 1
v 0.031000 0.000000 -0.020000
v 0.021920 0.019799 -0.020000
v 0.000000 0.028000 -0.020000
v -0.021920 0.019799 -0.020000
v -0.031000 0.000000 -0.020000
v -0.021920 -0.019799 -0.020000
v -0.000000 -0.028000 -0.020000
v 0.021920 -0.019799 -0.020000
v 0.034000 -0.015000 0.060000
v 0.024042 0.006213 0.060000
v 0.000000 0.015000 0.060000
v -0.024042 0.006213 0.060000
v -0.034000 -0.015000 0.060000
v -0.024042 -0.036213 0.060000
v -0.000000 -0.045000 0.060000
v 0.024042 -0.036213 0.060000
v 0.040000 -0.040000 0.150000
v 0.028284 -0.015958 0.150000
v 0.000000 -0.006000 0.150000
v -0.028284 -0.015958 0.150000
v -0.040000 -0.040000 0.150000
v -0.028284 -0.064042 0.150000
v -0.000000 -0.074000 0.150000
v 0.028284 -0.064042 0.150000
v 0.046000 -0.070000 0.240000
v 0.032527 -0.042423 0.240000
v 0.000000 -0.031000 0.240000
v -0.032527 -0.042423 0.240000
v -0.046000 -0.070000 0.240000
v -0.032527 -0.097577 0.240000
v -0.000000 -0.109000 0.240000
v 0.032527 -0.097577 0.240000
v 0.050000 -0.105000 0.340000
v 0.035355 -0.075302 0.340000
v 0.000000 -0.063000 0.340000
v -0.035355 -0.075302 0.340000
v -0.050000 -0.105000 0.340000
v -0.035355 -0.134698 0.340000
v -0.000000 -0.147000 0.340000
v 0.035355 -0.134698 0.340000
f 1 9 10 2
f 2 10 11 3
f 3 11 12 4
f 4 12 13 5
f 5 13 14 6
f 6 14 15 7
f 7 15 16 8
f 8 16 9 1
f 9 17 18 10
f 10 18 19 11
f 11 19 20 12
f 12 20 21 13
f 13 21 22 14
f 14 22 23 15
f 15 23 24 16
f 16 24 17 9
f 17 25 26 18
f 18 26 27 19
f 19 27 28 20
f 20 28 29 21
f 21 29 30 22
f 22 30 31 23
f 23 31 32 24
f 24 32 25 17
f 25 33 34 26
f 26 34 35 27
f 27 35 36 28
f 28 36 37 29
f 29 37 38 30
f 30 38 39 31
f 31 39 40 32
f 32 40 33 25
v 0.000000 0.000000 -0.020000
f 1 2 41
f 2 3 41
f 3 4 41
f 4 5 41
f 5 6 41
f 6 7 41
f 7 8 41
f 8 1 41
v 0.000000 -0.105000 0.340000
f 33 42 34
f 34 42 35
f 35 42 36
f 36 42 37
f 37 42 38
f 38 42 39
f 39 42 40
f 40 42 33
