o hand_v2
s 1
v -0.036000 -0.018012 -0.056882
v 0.034000 -0.018012 -0.056882
v 0.034000 0.007925 -0.058696
v -0.036000 0.007925 -0.058696
v -0.036000 -0.014663 -0.008999
v 0.034000 -0.014663 -0.008999
v 0.034000 0.011273 -0.010813
v -0.036000 0.011273 -0.010813
v -0.030000 -0.012595 -0.003790
v 0.032000 -0.012595 -0.003790
v 0.032000 0.010181 -0.000589
v -0.030000 0.010181 -0.000589
v -0.030000 -0.014544 0.010074
v 0.032000 -0.014544 0.010074
v 0.032000 0.008233 0.013275
v -0.030000 0.008233 0.013275
v 0.000000 -0.032639 -0.052865
v 0.020000 -0.032639 -0.052865
v 0.020000 -0.016746 -0.061315
v 0.000000 -0.016746 -0.061315
v 0.000000 -0.024189 -0.036972
v 0.020000 -0.024189 -0.036972
v 0.020000 -0.008295 -0.045422
v 0.000000 -0.008295 -0.045422
v 0.002000 -0.071414 -0.030414
v 0.017000 -0.071414 -0.030414
v 0.017000 -0.060332 -0.044599
v 0.002000 -0.060332 -0.044599
v 0.002000 -0.056442 -0.018717
v 0.017000 -0.056442 -0.018717
v 0.017000 -0.045360 -0.032901
v 0.002000 -0.045360 -0.032901
v -0.024000 -0.042343 -0.034163
v 0.002000 -0.042343 -0.034163
v 0.002000 -0.022446 -0.047583
v -0.024000 -0.022446 -0.047583
v -0.024000 -0.030040 -0.015924
v 0.002000 -0.030040 -0.015924
v 0.002000 -0.010143 -0.029345
v -0.024000 -0.010143 -0.029345
v -0.036000 -0.022345 -0.055827
v -0.014000 -0.022345 -0.055827
v -0.014000 -0.005226 -0.061390
v -0.036000 -0.005226 -0.061390
v -0.036000 -0.016165 -0.036806
v -0.014000 -0.016165 -0.036806
v -0.014000 0.000954 -0.042368
v -0.036000 0.000954 -0.042368
v -0.026000 -0.063926 -0.048181
v -0.008000 -0.063926 -0.048181
v -0.008000 -0.050137 -0.059751
v -0.026000 -0.050137 -0.059751
v -0.026000 -0.049785 -0.031328
v -0.008000 -0.049785 -0.031328
v -0.008000 -0.035996 -0.042898
v -0.026000 -0.035996 -0.042898
f 5 6 7 8
f 1 4 3 2
f 1 2 6 5
f 4 8 7 3
f 2 3 7 6
f 1 5 8 4
f 13 14 15 16
f 9 12 11 10
f 9 10 14 13
f 12 16 15 11
f 10 11 15 14
f 9 13 16 12
f 21 22 23 24
f 17 20 19 18
f 17 18 22 21
f 20 24 23 19
f 18 19 23 22
f 17 21 24 20
f 29 30 31 32
f 25 28 27 26
f 25 26 30 29
f 28 32 31 27
f 26 27 31 30
f 25 29 32 28
f 37 38 39 40
f 33 36 35 34
f 33 34 38 37
f 36 40 39 35
f 34 35 39 38
f 33 37 40 36
f 45 46 47 48
f 41 44 43 42
f 41 42 46 45
f 44 48 47 43
f 42 43 47 46
f 41 45 48 44
f 53 54 55 56
f 49 52 51 50
f 49 50 54 53
f 52 56 55 51
f 50 51 55 54
f 49 53 56 52
