# DEAD WIRE authored writing anatomy
o hand
s 1
v 0.018000 0.000000 0.035000
v 0.014562 0.007053 0.035000
v 0.005562 0.011413 0.035000
v -0.005562 0.011413 0.035000
v -0.014562 0.007053 0.035000
v -0.018000 0.000000 0.035000
v -0.014562 -0.007053 0.035000
v -0.005562 -0.011413 0.035000
v 0.005562 -0.011413 0.035000
v 0.014562 -0.007053 0.035000
v 0.023000 0.000000 0.020000
v 0.018607 0.007641 0.020000
v 0.007107 0.012364 0.020000
v -0.007107 0.012364 0.020000
v -0.018607 0.007641 0.020000
v -0.023000 0.000000 0.020000
v -0.018607 -0.007641 0.020000
v -0.007107 -0.012364 0.020000
v 0.007107 -0.012364 0.020000
v 0.018607 -0.007641 0.020000
v 0.034000 0.000000 0.000000
v 0.028080 0.008817 0.000000
v 0.012580 0.014266 0.000000
v -0.006580 0.014266 0.000000
v -0.022080 0.008817 0.000000
v -0.028000 0.000000 0.000000
v -0.022080 -0.008817 0.000000
v -0.006580 -0.014266 0.000000
v 0.012580 -0.014266 0.000000
v 0.028080 -0.008817 0.000000
v 0.034000 -0.002000 -0.022000
v 0.028271 0.006229 -0.022000
v 0.013271 0.011315 -0.022000
v -0.005271 0.011315 -0.022000
v -0.020271 0.006229 -0.022000
v -0.026000 -0.002000 -0.022000
v -0.020271 -0.010229 -0.022000
v -0.005271 -0.015315 -0.022000
v 0.013271 -0.015315 -0.022000
v 0.028271 -0.010229 -0.022000
v 0.029000 -0.005000 -0.032000
v 0.024225 0.000878 -0.032000
v 0.011725 0.004511 -0.032000
v -0.003725 0.004511 -0.032000
v -0.016225 0.000878 -0.032000
v -0.021000 -0.005000 -0.032000
v -0.016225 -0.010878 -0.032000
v -0.003725 -0.014511 -0.032000
v 0.011725 -0.014511 -0.032000
v 0.024225 -0.010878 -0.032000
v -0.010000 0.002000 -0.022000
v -0.011528 0.006702 -0.022000
v -0.015528 0.009608 -0.022000
v -0.020472 0.009608 -0.022000
v -0.024472 0.006702 -0.022000
v -0.026000 0.002000 -0.022000
v -0.024472 -0.002702 -0.022000
v -0.020472 -0.005608 -0.022000
v -0.015528 -0.005608 -0.022000
v -0.011528 -0.002702 -0.022000
v -0.010000 0.011000 -0.040000
v -0.011528 0.015114 -0.040000
v -0.015528 0.017657 -0.040000
v -0.020472 0.017657 -0.040000
v -0.024472 0.015114 -0.040000
v -0.026000 0.011000 -0.040000
v -0.024472 0.006886 -0.040000
v -0.020472 0.004343 -0.040000
v -0.015528 0.004343 -0.040000
v -0.011528 0.006886 -0.040000
v -0.005000 0.004000 -0.057000
v -0.006337 0.008114 -0.057000
v -0.009837 0.010657 -0.057000
v -0.014163 0.010657 -0.057000
v -0.017663 0.008114 -0.057000
v -0.019000 0.004000 -0.057000
v -0.017663 -0.000114 -0.057000
v -0.014163 -0.002657 -0.057000
v -0.009837 -0.002657 -0.057000
v -0.006337 -0.000114 -0.057000
v 0.000000 -0.012000 -0.059000
v -0.001146 -0.008473 -0.059000
v -0.004146 -0.006294 -0.059000
v -0.007854 -0.006294 -0.059000
v -0.010854 -0.008473 -0.059000
v -0.012000 -0.012000 -0.059000
v -0.010854 -0.015527 -0.059000
v -0.007854 -0.017706 -0.059000
v -0.004146 -0.017706 -0.059000
v -0.001146 -0.015527 -0.059000
v -0.001000 -0.019000 -0.050000
v -0.001573 -0.016649 -0.050000
v -0.003073 -0.015196 -0.050000
v -0.004927 -0.015196 -0.050000
v -0.006427 -0.016649 -0.050000
v -0.007000 -0.019000 -0.050000
v -0.006427 -0.021351 -0.050000
v -0.004927 -0.022804 -0.050000
v -0.003073 -0.022804 -0.050000
v -0.001573 -0.021351 -0.050000
v 0.006000 -0.006000 -0.026000
v 0.004472 -0.001298 -0.026000
v 0.000472 0.001608 -0.026000
v -0.004472 0.001608 -0.026000
v -0.008472 -0.001298 -0.026000
v -0.010000 -0.006000 -0.026000
v -0.008472 -0.010702 -0.026000
v -0.004472 -0.013608 -0.026000
v 0.000472 -0.013608 -0.026000
v 0.004472 -0.010702 -0.026000
v 0.013000 -0.013000 -0.044000
v 0.011472 -0.008298 -0.044000
v 0.007472 -0.005392 -0.044000
v 0.002528 -0.005392 -0.044000
v -0.001472 -0.008298 -0.044000
v -0.003000 -0.013000 -0.044000
v -0.001472 -0.017702 -0.044000
v 0.002528 -0.020608 -0.044000
v 0.007472 -0.020608 -0.044000
v 0.011472 -0.017702 -0.044000
v 0.016000 -0.025000 -0.051000
v 0.014663 -0.020886 -0.051000
v 0.011163 -0.018343 -0.051000
v 0.006837 -0.018343 -0.051000
v 0.003337 -0.020886 -0.051000
v 0.002000 -0.025000 -0.051000
v 0.003337 -0.029114 -0.051000
v 0.006837 -0.031657 -0.051000
v 0.011163 -0.031657 -0.051000
v 0.014663 -0.029114 -0.051000
v 0.007000 -0.030000 -0.043000
v 0.006236 -0.027061 -0.043000
v 0.004236 -0.025245 -0.043000
v 0.001764 -0.025245 -0.043000
v -0.000236 -0.027061 -0.043000
v -0.001000 -0.030000 -0.043000
v -0.000236 -0.032939 -0.043000
v 0.001764 -0.034755 -0.043000
v 0.004236 -0.034755 -0.043000
v 0.006236 -0.032939 -0.043000
v 0.021000 -0.008000 -0.025000
v 0.019472 -0.003298 -0.025000
v 0.015472 -0.000392 -0.025000
v 0.010528 -0.000392 -0.025000
v 0.006528 -0.003298 -0.025000
v 0.005000 -0.008000 -0.025000
v 0.006528 -0.012702 -0.025000
v 0.010528 -0.015608 -0.025000
v 0.015472 -0.015608 -0.025000
v 0.019472 -0.012702 -0.025000
v 0.030000 -0.016000 -0.040000
v 0.028472 -0.011886 -0.040000
v 0.024472 -0.009343 -0.040000
v 0.019528 -0.009343 -0.040000
v 0.015528 -0.011886 -0.040000
v 0.014000 -0.016000 -0.040000
v 0.015528 -0.020114 -0.040000
v 0.019528 -0.022657 -0.040000
v 0.024472 -0.022657 -0.040000
v 0.028472 -0.020114 -0.040000
v 0.031000 -0.029000 -0.038000
v 0.029663 -0.025473 -0.038000
v 0.026163 -0.023294 -0.038000
v 0.021837 -0.023294 -0.038000
v 0.018337 -0.025473 -0.038000
v 0.017000 -0.029000 -0.038000
v 0.018337 -0.032527 -0.038000
v 0.021837 -0.034706 -0.038000
v 0.026163 -0.034706 -0.038000
v 0.029663 -0.032527 -0.038000
v 0.022000 -0.032000 -0.025000
v 0.021236 -0.029061 -0.025000
v 0.019236 -0.027245 -0.025000
v 0.016764 -0.027245 -0.025000
v 0.014764 -0.029061 -0.025000
v 0.014000 -0.032000 -0.025000
v 0.014764 -0.034939 -0.025000
v 0.016764 -0.036755 -0.025000
v 0.019236 -0.036755 -0.025000
v 0.021236 -0.034939 -0.025000
v 0.034000 -0.008000 -0.018000
v 0.032663 -0.003886 -0.018000
v 0.029163 -0.001343 -0.018000
v 0.024837 -0.001343 -0.018000
v 0.021337 -0.003886 -0.018000
v 0.020000 -0.008000 -0.018000
v 0.021337 -0.012114 -0.018000
v 0.024837 -0.014657 -0.018000
v 0.029163 -0.014657 -0.018000
v 0.032663 -0.012114 -0.018000
v 0.042000 -0.017000 -0.029000
v 0.040663 -0.013473 -0.029000
v 0.037163 -0.011294 -0.029000
v 0.032837 -0.011294 -0.029000
v 0.029337 -0.013473 -0.029000
v 0.028000 -0.017000 -0.029000
v 0.029337 -0.020527 -0.029000
v 0.032837 -0.022706 -0.029000
v 0.037163 -0.022706 -0.029000
v 0.040663 -0.020527 -0.029000
v 0.040000 -0.029000 -0.027000
v 0.038854 -0.026061 -0.027000
v 0.035854 -0.024245 -0.027000
v 0.032146 -0.024245 -0.027000
v 0.029146 -0.026061 -0.027000
v 0.028000 -0.029000 -0.027000
v 0.029146 -0.031939 -0.027000
v 0.032146 -0.033755 -0.027000
v 0.035854 -0.033755 -0.027000
v 0.038854 -0.031939 -0.027000
v 0.031000 -0.030000 -0.017000
v 0.030427 -0.027649 -0.017000
v 0.028927 -0.026196 -0.017000
v 0.027073 -0.026196 -0.017000
v 0.025573 -0.027649 -0.017000
v 0.025000 -0.030000 -0.017000
v 0.025573 -0.032351 -0.017000
v 0.027073 -0.033804 -0.017000
v 0.028927 -0.033804 -0.017000
v 0.030427 -0.032351 -0.017000
v -0.011000 -0.003000 0.003000
v -0.013292 0.002878 0.003000
v -0.019292 0.006511 0.003000
v -0.026708 0.006511 0.003000
v -0.032708 0.002878 0.003000
v -0.035000 -0.003000 0.003000
v -0.032708 -0.008878 0.003000
v -0.026708 -0.012511 0.003000
v -0.019292 -0.012511 0.003000
v -0.013292 -0.008878 0.003000
v -0.020000 -0.008000 -0.014000
v -0.022101 -0.002710 -0.014000
v -0.027601 0.000560 -0.014000
v -0.034399 0.000560 -0.014000
v -0.039899 -0.002710 -0.014000
v -0.042000 -0.008000 -0.014000
v -0.039899 -0.013290 -0.014000
v -0.034399 -0.016560 -0.014000
v -0.027601 -0.016560 -0.014000
v -0.022101 -0.013290 -0.014000
v -0.019000 -0.018000 -0.033000
v -0.020719 -0.013298 -0.033000
v -0.025219 -0.010392 -0.033000
v -0.030781 -0.010392 -0.033000
v -0.035281 -0.013298 -0.033000
v -0.037000 -0.018000 -0.033000
v -0.035281 -0.022702 -0.033000
v -0.030781 -0.025608 -0.033000
v -0.025219 -0.025608 -0.033000
v -0.020719 -0.022702 -0.033000
v -0.004000 -0.022000 -0.047000
v -0.005719 -0.017886 -0.047000
v -0.010219 -0.015343 -0.047000
v -0.015781 -0.015343 -0.047000
v -0.020281 -0.017886 -0.047000
v -0.022000 -0.022000 -0.047000
v -0.020281 -0.026114 -0.047000
v -0.015781 -0.028657 -0.047000
v -0.010219 -0.028657 -0.047000
v -0.005719 -0.026114 -0.047000
v -0.002000 -0.021000 -0.049000
v -0.002764 -0.018061 -0.049000
v -0.004764 -0.016245 -0.049000
v -0.007236 -0.016245 -0.049000
v -0.009236 -0.018061 -0.049000
v -0.010000 -0.021000 -0.049000
v -0.009236 -0.023939 -0.049000
v -0.007236 -0.025755 -0.049000
v -0.004764 -0.025755 -0.049000
v -0.002764 -0.023939 -0.049000
f 10 9 8 7 6 5 4 3 2 1
f 1 2 12 11
f 2 3 13 12
f 3 4 14 13
f 4 5 15 14
f 5 6 16 15
f 6 7 17 16
f 7 8 18 17
f 8 9 19 18
f 9 10 20 19
f 10 1 11 20
f 11 12 22 21
f 12 13 23 22
f 13 14 24 23
f 14 15 25 24
f 15 16 26 25
f 16 17 27 26
f 17 18 28 27
f 18 19 29 28
f 19 20 30 29
f 20 11 21 30
f 21 22 32 31
f 22 23 33 32
f 23 24 34 33
f 24 25 35 34
f 25 26 36 35
f 26 27 37 36
f 27 28 38 37
f 28 29 39 38
f 29 30 40 39
f 30 21 31 40
f 31 32 42 41
f 32 33 43 42
f 33 34 44 43
f 34 35 45 44
f 35 36 46 45
f 36 37 47 46
f 37 38 48 47
f 38 39 49 48
f 39 40 50 49
f 40 31 41 50
f 41 42 43 44 45 46 47 48 49 50
f 60 59 58 57 56 55 54 53 52 51
f 51 52 62 61
f 52 53 63 62
f 53 54 64 63
f 54 55 65 64
f 55 56 66 65
f 56 57 67 66
f 57 58 68 67
f 58 59 69 68
f 59 60 70 69
f 60 51 61 70
f 61 62 72 71
f 62 63 73 72
f 63 64 74 73
f 64 65 75 74
f 65 66 76 75
f 66 67 77 76
f 67 68 78 77
f 68 69 79 78
f 69 70 80 79
f 70 61 71 80
f 71 72 82 81
f 72 73 83 82
f 73 74 84 83
f 74 75 85 84
f 75 76 86 85
f 76 77 87 86
f 77 78 88 87
f 78 79 89 88
f 79 80 90 89
f 80 71 81 90
f 81 82 92 91
f 82 83 93 92
f 83 84 94 93
f 84 85 95 94
f 85 86 96 95
f 86 87 97 96
f 87 88 98 97
f 88 89 99 98
f 89 90 100 99
f 90 81 91 100
f 91 92 93 94 95 96 97 98 99 100
f 110 109 108 107 106 105 104 103 102 101
f 101 102 112 111
f 102 103 113 112
f 103 104 114 113
f 104 105 115 114
f 105 106 116 115
f 106 107 117 116
f 107 108 118 117
f 108 109 119 118
f 109 110 120 119
f 110 101 111 120
f 111 112 122 121
f 112 113 123 122
f 113 114 124 123
f 114 115 125 124
f 115 116 126 125
f 116 117 127 126
f 117 118 128 127
f 118 119 129 128
f 119 120 130 129
f 120 111 121 130
f 121 122 132 131
f 122 123 133 132
f 123 124 134 133
f 124 125 135 134
f 125 126 136 135
f 126 127 137 136
f 127 128 138 137
f 128 129 139 138
f 129 130 140 139
f 130 121 131 140
f 131 132 133 134 135 136 137 138 139 140
f 150 149 148 147 146 145 144 143 142 141
f 141 142 152 151
f 142 143 153 152
f 143 144 154 153
f 144 145 155 154
f 145 146 156 155
f 146 147 157 156
f 147 148 158 157
f 148 149 159 158
f 149 150 160 159
f 150 141 151 160
f 151 152 162 161
f 152 153 163 162
f 153 154 164 163
f 154 155 165 164
f 155 156 166 165
f 156 157 167 166
f 157 158 168 167
f 158 159 169 168
f 159 160 170 169
f 160 151 161 170
f 161 162 172 171
f 162 163 173 172
f 163 164 174 173
f 164 165 175 174
f 165 166 176 175
f 166 167 177 176
f 167 168 178 177
f 168 169 179 178
f 169 170 180 179
f 170 161 171 180
f 171 172 173 174 175 176 177 178 179 180
f 190 189 188 187 186 185 184 183 182 181
f 181 182 192 191
f 182 183 193 192
f 183 184 194 193
f 184 185 195 194
f 185 186 196 195
f 186 187 197 196
f 187 188 198 197
f 188 189 199 198
f 189 190 200 199
f 190 181 191 200
f 191 192 202 201
f 192 193 203 202
f 193 194 204 203
f 194 195 205 204
f 195 196 206 205
f 196 197 207 206
f 197 198 208 207
f 198 199 209 208
f 199 200 210 209
f 200 191 201 210
f 201 202 212 211
f 202 203 213 212
f 203 204 214 213
f 204 205 215 214
f 205 206 216 215
f 206 207 217 216
f 207 208 218 217
f 208 209 219 218
f 209 210 220 219
f 210 201 211 220
f 211 212 213 214 215 216 217 218 219 220
f 230 229 228 227 226 225 224 223 222 221
f 221 222 232 231
f 222 223 233 232
f 223 224 234 233
f 224 225 235 234
f 225 226 236 235
f 226 227 237 236
f 227 228 238 237
f 228 229 239 238
f 229 230 240 239
f 230 221 231 240
f 231 232 242 241
f 232 233 243 242
f 233 234 244 243
f 234 235 245 244
f 235 236 246 245
f 236 237 247 246
f 237 238 248 247
f 238 239 249 248
f 239 240 250 249
f 240 231 241 250
f 241 242 252 251
f 242 243 253 252
f 243 244 254 253
f 244 245 255 254
f 245 246 256 255
f 246 247 257 256
f 247 248 258 257
f 248 249 259 258
f 249 250 260 259
f 250 241 251 260
f 251 252 262 261
f 252 253 263 262
f 253 254 264 263
f 254 255 265 264
f 255 256 266 265
f 256 257 267 266
f 257 258 268 267
f 258 259 269 268
f 259 260 270 269
f 260 251 261 270
f 261 262 263 264 265 266 267 268 269 270
